HIERARCHY
ROOT pelvis
{
  OFFSET 0 100 0
  CHANNELS 6 Xposition Yposition Zposition Zrotation Xrotation Yrotation
  JOINT pelvis_right_femur
  {
    OFFSET -10.78128 -3.44521 -0.5502486
    CHANNELS 3 Zrotation Xrotation Yrotation
    JOINT right_femur_tibia
    {
      OFFSET -0.8047443 -44.0398 -0.1307829
      CHANNELS 3 Zrotation Xrotation Yrotation
      JOINT right_tibia_foot
      {
        OFFSET 3.006224 -47.83518 -5
        CHANNELS 3 Zrotation Xrotation Yrotation
        End Site
        {
          OFFSET 0 -5 15
        }
      }
    }
  }
  JOINT pelvis_left_femur
  {
    OFFSET 10.78128 -3.44521 -0.5502486
    CHANNELS 3 Zrotation Xrotation Yrotation
    JOINT left_femur_tibia
    {
      OFFSET 0.8047443 -44.0398 -0.1307829
      CHANNELS 3 Zrotation Xrotation Yrotation
      JOINT left_tibia_foot
      {
        OFFSET -4.370144 -48.10324 -4.275266
        CHANNELS 3 Zrotation Xrotation Yrotation
        End Site
        {
          OFFSET 0 -5 15
        }
      }
    }
  }
  JOINT pelvis_spine1
  {
    OFFSET 0 6.468898 -3.129235
    CHANNELS 3 Zrotation Xrotation Yrotation
    JOINT spine1
    {
      OFFSET 0 23.15396 4.99043
      CHANNELS 3 Zrotation Xrotation Yrotation
      JOINT spine2
      {
        OFFSET 0 20.79997 -5.064912
        CHANNELS 3 Zrotation Xrotation Yrotation
        JOINT neck
        {
          OFFSET 0 14.38658 9.616178
          CHANNELS 3 Zrotation Xrotation Yrotation
          End Site
          {
            OFFSET 0 20 0
          }
        }
      }
      JOINT right_manubrium
      {
        OFFSET -5.722621 16.35077 3.967754
        CHANNELS 3 Zrotation Xrotation Yrotation
        JOINT right_clavicle
        {
          OFFSET -13.16364 1.694482 -4.693211
          CHANNELS 3 Zrotation Xrotation Yrotation
          JOINT right_humerus
          {
            OFFSET -28.5034 -0.3100689 -2.792744
            CHANNELS 3 Zrotation Xrotation Yrotation
            JOINT right_radius
            {
              OFFSET -25.15693 0.02248979 -1.271978
              CHANNELS 3 Zrotation Xrotation Yrotation
              End Site
              {
                OFFSET -15 0 0
              }
            }
          }
        }
      }
      JOINT left_manubrium
      {
        OFFSET 5.722621 16.35077 3.967754
        CHANNELS 3 Zrotation Xrotation Yrotation
        JOINT left_clavicle
        {
          OFFSET 13.16364 1.694482 -4.693211
          CHANNELS 3 Zrotation Xrotation Yrotation
          JOINT left_humerus
          {
            OFFSET 29.39168 -1.063119 -2.237045
            CHANNELS 3 Zrotation Xrotation Yrotation
            JOINT left_radius
            {
              OFFSET 24.59957 -0.9528479 0.9047498
              CHANNELS 3 Zrotation Xrotation Yrotation
              End Site
              {
                OFFSET 15 -0 -0
              }
            }
          }
        }
      }
    }
  }
}
MOTION
Frames: 21
Frame Time: 0.0416666666667
0 103.5113 0 0.8048521 -2.726082 0.007284086 2.957142 -11.19097 7.638488 -0 37.95349 -0 -8.305541 -18.91893 -4.346993 -6.018032 9.728746 -22.98961 -0 4.06819 -0 6.96328 -14.76201 25.16499 -1.734968 -3.089803 5.628531 2.628676 10.01189 -7.406283 1.699309 21.61962 6.024746 2.225601 -26.53102 10.06545 5.588228 -19.41243 10.83346 86.63548 34.29115 -20.38101 -0 0 15.20514 -5.851781 7.630641 2.995553 5.774463 -20.84104 -1.089556 -96.27131 25.93085 25.42631 0 0 -13.42634 10.17519 16.6374 3.598067
0.3012374 103.3554 1.481871 0.70145 -1.793367 0.008390515 3.451138 -14.12374 8.44957 -0 38.15762 -0 -7.197912 -18.73856 -4.357463 -6.1894 10.53173 -23.36607 -0 4.062274 -0 6.836919 -16.01402 25.37145 -1.751755 -3.109407 5.675186 2.523813 10.05823 -7.323141 1.701238 21.70347 5.960272 2.225148 -26.30232 9.962637 5.649873 -19.38589 10.79827 86.50791 34.34335 -20.17424 -0 0 15.25145 -6.067445 7.695157 3.119225 5.720792 -20.84592 -1.134313 -96.33354 25.95747 25.51866 0 0 -13.10403 10.01844 16.73023 3.784874
0.5696905 103.0701 3.098997 0.640449 -1.194377 0.03516972 3.776527 -17.78928 8.032991 -0 36.27635 -0 -6.403237 -15.95601 -3.818796 -6.438704 11.68341 -23.07421 -0 4.803467 -0 5.404904 -18.38068 24.86772 -1.653345 -2.941946 5.564069 2.971169 9.981223 -7.768228 1.58838 21.40804 6.065723 2.14899 -27.15626 10.06448 5.252965 -19.48462 10.99816 87.30778 34.26711 -21.22759 -0 0 14.69847 -5.443432 7.305813 2.861174 5.728264 -20.98851 -1.034524 -95.82404 26.14715 25.07113 0 0 -14.88516 10.22063 15.9868 3.511855
0.8325387 102.6809 4.893706 0.4884599 -0.3594211 0.08458722 4.312833 -21.16881 7.846131 -0 33.87662 -0 -5.69557 -13.88996 -3.387251 -6.575382 12.23129 -22.44363 -0 5.112145 -0 5.211567 -19.84899 24.51901 -1.56984 -2.807706 5.462942 3.327943 9.929608 -8.140123 1.484782 21.14626 6.171756 2.114581 -27.80698 10.12344 4.946883 -19.54798 11.17162 87.98021 34.20534 -22.11914 -0 0 14.21847 -5.009223 7.0403 2.700422 5.752762 -21.14571 -0.975077 -95.34383 26.25574 24.63284 0 0 -16.42579 10.35406 15.33466 3.332373
1.103106 102.1726 6.969693 0.2649938 0.7428724 0.17634 5.035368 -24.89777 7.675173 -0 30.54451 -0 -5.012255 -11.69476 -2.9045 -6.679796 12.58688 -21.47409 -0 5.375385 -0 5.615959 -21.07024 24.14455 -1.471174 -2.672155 5.35053 3.709678 9.881782 -8.553279 1.365185 20.84631 6.300741 2.092402 -28.4861 10.17698 4.622664 -19.61053 11.3661 88.74556 34.1163 -23.14167 -0 0 13.6838 -4.575495 6.780623 2.544569 5.792841 -21.35562 -0.9320795 -94.79932 26.35998 24.13364 0 0 -18.1729 10.45696 14.60394 3.204811
1.385418 101.5508 9.402619 0.003904064 1.893054 0.3340757 5.793007 -28.31205 7.529802 -0 26.98313 -0 -4.558651 -9.613527 -2.440263 -6.730842 12.84083 -20.41498 -0 5.778572 -0 6.263696 -21.92504 23.72179 -1.368186 -2.546224 5.237082 4.064102 9.857497 -8.964151 1.236011 20.53978 6.438236 2.095124 -29.07845 10.19207 4.327528 -19.65104 11.56516 89.52494 34.02306 -24.18554 -0 0 13.12959 -4.250316 6.589849 2.446018 5.842592 -21.61402 -0.9252363 -94.2129 26.43276 23.58849 0 0 -19.95925 10.48663 13.85213 3.178231
1.674966 100.8403 12.27978 -0.3182265 3.055835 0.5867798 6.580964 -31.39859 7.414593 -0 23.43966 -0 -4.407266 -7.570617 -1.989437 -6.709592 13.13373 -19.36074 -0 6.588314 -0 6.793606 -22.48683 23.1175 -1.261692 -2.433935 5.130394 4.376843 9.865021 -9.361216 1.100822 20.24028 6.574091 2.119145 -29.5569 10.16086 4.071532 -19.66753 11.7632 90.30303 33.92494 -25.22932 -0 0 12.57045 -4.052757 6.477551 2.405441 5.89391 -21.91756 -0.9615821 -93.61043 26.48568 23.026 0 0 -21.72604 10.4201 13.10547 3.283416
1.960871 100.0823 15.6666 -0.7123984 4.055573 0.9549089 7.332066 -33.79799 7.281646 -0 20.38149 -0 -4.688794 -5.683561 -1.579703 -6.576095 13.51975 -18.41567 -0 8.083905 -0 6.808763 -22.67327 22.17945 -1.156875 -2.33716 5.039574 4.624681 9.915887 -9.723301 0.9646404 19.96872 6.694291 2.163128 -29.87404 10.068 3.874284 -19.65359 11.95192 91.03961 33.83408 -26.21685 -0 0 12.02788 -4.024254 6.46614 2.436279 5.935219 -22.25455 -1.048283 -93.01749 26.52094 22.47239 0 0 -23.37325 10.2344 12.39834 3.545121
2.230792 99.34344 19.60943 -1.196784 4.762122 1.441141 8.020716 -35.26041 7.087035 -0 18.11312 -0 -5.44676 -4.087566 -1.233129 -6.288615 13.97508 -17.59988 -0 10.57592 -0 5.990591 -22.36355 20.74028 -1.059053 -2.2553 4.975317 4.790851 10.0167 -10.03091 0.8331339 19.74561 6.783808 2.221264 -30.00095 9.904492 3.747681 -19.60947 12.12342 91.69351 33.76259 -27.0908 -0 0 11.52787 -4.187009 6.563812 2.542904 5.951867 -22.60488 -1.186042 -92.46615 26.54909 21.96495 0 0 -24.80316 9.915564 11.76309 3.975348
2.477007 98.71537 24.11422 -1.761286 5.041845 2.01268 8.617642 -35.50975 6.786667 -0 16.85479 -0 -6.630303 -2.986349 -0.9873169 -5.82031 14.34957 -16.87455 -0 14.33874 -0 4.198296 -21.36901 18.7266 -0.9747029 -2.184138 4.948716 4.862666 10.17014 -10.26534 0.7109654 19.5895 6.828318 2.287126 -29.91774 9.662692 3.698288 -19.539 12.2712 92.21908 33.72771 -27.78667 -0 0 11.09708 -4.560024 6.773896 2.73277 5.927414 -22.94281 -1.370737 -91.98191 26.57948 21.53834 0 0 -25.92775 9.456167 11.22202 4.574065
2.702043 98.31256 29.13835 -2.360634 4.830719 2.59459 9.106962 -34.37245 6.370825 -0 16.61033 -0 -8.061749 -2.560141 -0.8811873 -5.181725 14.36198 -16.13508 -0 19.56694 -0 1.572421 -19.50503 16.23569 -0.9103811 -2.117153 4.970564 4.834205 10.37143 -10.41068 0.601509 19.51329 6.817638 2.354005 -29.62126 9.341416 3.723203 -19.4521 12.39079 92.57133 33.74726 -28.24004 -0 0 10.76403 -5.152423 7.091194 3.013984 5.846923 -23.23867 -1.59199 -91.58309 26.62036 21.22481 0 0 -26.68493 8.858386 10.78433 5.327458
2.921479 98.25131 34.58489 -2.902672 4.154701 3.077303 9.454298 -31.8149 5.861957 -0 17.11702 -0 -9.463874 -2.901184 -0.9315351 -4.442717 13.62851 -15.24694 -0 26.26283 -0 -1.418563 -16.71336 13.58775 -0.8723222 -2.046641 5.050107 4.705513 10.60758 -10.4539 0.5065413 19.52201 6.74874 2.416942 -29.12302 8.947128 3.810244 -19.36371 12.48009 92.70747 33.83752 -28.38863 -0 0 10.55864 -5.96835 7.506158 3.398335 5.700402 -23.46177 -1.834013 -91.27687 26.67437 21.04903 0 0 -27.04729 8.133953 10.4446 6.209153
3.160345 98.61244 40.31191 -3.255629 3.131933 3.34707 9.573508 -27.97027 5.290718 -0 17.83704 -0 -10.54471 -3.952288 -1.095266 -3.727936 11.75751 -14.1071 -0 34.14558 -0 -4.111935 -13.20948 11.23395 -0.8657212 -1.96547 5.194026 4.482338 10.85704 -10.38521 0.4267606 19.61179 6.627723 2.473204 -28.44977 8.496534 3.938543 -19.29317 12.5392 92.58953 34.00876 -28.17635 -0 0 10.51267 -7.005457 8.00547 3.899035 5.485765 -23.58249 -2.076124 -91.06167 26.73764 21.0282 0 0 -27.02409 7.305274 10.18618 7.181071
3.441925 99.39551 46.1563 -3.267964 1.922612 3.330898 9.321945 -23.10971 4.663788 -0 18.07521 -0 -11.11768 -5.485628 -1.25501 -3.177885 8.491539 -12.71571 -0 42.56047 -0 -5.895587 -9.541291 9.586074 -0.8942428 -1.868112 5.405483 4.174872 11.09246 -10.19838 0.3623197 19.77067 6.469631 2.522466 -27.63964 8.015574 4.082152 -19.26142 12.57016 92.18642 34.26175 -27.55705 -0 0 10.65722 -8.256672 8.574838 4.528922 5.209841 -23.57482 -2.294963 -90.92951 26.79842 21.17098 0 0 -26.65464 6.404132 9.985881 8.196588
3.772105 100.4889 51.96664 -2.818019 0.6508957 3.037748 8.579554 -17.57909 3.963123 -0 17.25348 -0 -11.20552 -7.131155 -1.265419 -2.876942 3.849145 -11.19701 -0 50.44662 -0 -6.436253 -6.445835 8.880524 -0.9595948 -1.751049 5.683964 3.796119 11.28559 -9.890967 0.3133438 19.981 6.295927 2.566198 -26.7363 7.535851 4.21483 -19.28777 12.57665 91.47624 34.58469 -26.49824 -0 0 11.01897 -9.712557 9.201302 5.298281 4.886949 -23.4187 -2.467789 -90.86962 26.83705 21.47797 0 0 -25.99517 5.46813 9.818791 9.205999
4.130022 101.6787 57.62922 -1.905577 -0.6385162 2.571491 7.398265 -11.75256 3.194895 -0 15.26468 -0 -11.04159 -8.482352 -1.054518 -2.76754 -1.806032 -9.718055 -0 56.38439 -0 -5.767422 -4.522136 9.15442 -1.061348 -1.612684 6.026475 3.35972 11.4125 -9.463669 0.2802953 20.22278 6.130409 2.606629 -25.78206 7.08958 4.314131 -19.38764 12.56338 90.44724 34.95108 -24.98214 -0 0 11.61803 -11.36498 9.874307 6.214124 4.535639 -23.10098 -2.575868 -90.87251 26.82708 21.94461 0 0 -25.10225 4.535439 9.661446 10.16311
4.479727 102.7006 63.07733 -0.7456016 -1.932179 2.09084 6.101316 -6.026359 2.452267 -0 12.64685 -0 -10.90105 -9.297937 -0.7010327 -2.587535 -7.833873 -8.332413 -0 58.80598 -0 -4.224068 -3.88058 10.2817 -1.19682 -1.45364 6.429784 2.878484 11.4566 -8.919367 0.2641506 20.47645 5.99502 2.645149 -24.81463 6.705876 4.362445 -19.57292 12.53533 89.09904 35.31798 -23.00624 -0 0 12.46939 -13.20609 10.5819 7.278774 4.175413 -22.61503 -2.606222 -90.9349 26.73865 22.56752 0 0 -24.02059 3.640849 9.493089 11.02985
4.803064 103.3129 68.29541 0.2564058 -3.153096 1.713811 5.167873 -0.7929107 1.908294 -0 10.29516 -0 -10.83514 -9.701924 -0.3969228 -1.932059 -13.50375 -6.902609 -0 56.49472 -0 -2.289137 -4.03937 12.00446 -1.360461 -1.278019 6.891304 2.365247 11.40932 -8.264655 0.2660144 20.723 5.907116 2.681081 -23.86946 6.409041 4.345663 -19.8533 12.49722 87.4508 35.62484 -20.59332 -0 0 13.58343 -15.2179 11.30266 8.484607 3.825731 -21.96235 -2.552274 -91.06213 26.54375 23.34797 0 0 -22.78501 2.815033 9.294813 11.7774
5.124828 103.361 73.33211 0.7253506 -4.164358 1.434108 4.902686 3.700273 1.69623 -0 8.831837 -0 -10.58727 -10.1646 -0.3100314 -0.5417019 -18.18932 -5.269961 -0 49.3643 -0 -0.4601408 -4.252709 13.97478 -1.542121 -1.095054 7.405498 1.836251 11.2721 -7.516762 0.2858796 20.94152 5.87842 2.712524 -22.98383 6.216323 4.253539 -20.23351 12.45421 85.56306 35.79629 -17.82163 -0 0 14.95569 -17.35479 12.00006 9.803793 3.508032 -21.16116 -2.416672 -91.26242 26.2214 24.28177 0 0 -21.44027 2.085034 9.046584 12.38707
5.50145 102.8118 78.30936 0.5886283 -4.893707 1.144114 5.171248 7.509694 1.772726 -0 8.252123 -0 -9.855604 -11.16307 -0.4556329 1.345806 -21.51335 -3.572553 -0 38.99584 -0 0.812044 -4.077868 15.84403 -1.724831 -0.9191625 7.9557 1.314236 11.06267 -6.713899 0.3211145 21.10709 5.913959 2.739869 -22.19455 6.132175 4.085302 -20.70305 12.41337 83.56673 35.75537 -14.86782 -0 0 16.54256 -19.53058 12.62786 11.17752 3.24828 -20.26056 -2.218428 -91.53244 25.76211 25.33369 0 0 -20.06612 1.470964 8.72432 12.85592
5.987847 101.7509 83.4048 0.1208763 -5.393051 0.7360617 5.487276 10.91844 1.933991 -0 8.250762 -0 -8.607622 -12.75239 -0.6772651 3.020188 -23.45731 -2.299177 -0 28.16032 -0 1.181337 -3.657326 17.36326 -1.884757 -0.7664543 8.506267 0.8277616 10.82146 -5.920937 0.3662393 21.19469 6.008793 2.768843 -21.52728 6.140988 3.858089 -21.22329 12.38395 81.67178 35.45103 -12.02522 -0 0 18.23521 -21.62006 13.1463 12.51232 3.074916 -19.34861 -1.999361 -91.8433 25.17595 26.41248 0 0 -18.78298 0.977696 8.303964 13.20577
